<svg id="Layer_1" data-name="Layer 1" xmlns="http://www.w3.org/2000/svg" viewBox="0 0 100 100"><defs><style>.cls-1{fill:#555554;}</style></defs><title>icons</title><path class="cls-1" d="M31.17,23.55A18.83,18.83,0,1,1,50,42.38,18.83,18.83,0,0,1,31.17,23.55Z"/><path class="cls-1" d="M58,45.61H42A24.14,24.14,0,0,0,17.9,69.72V89.27l.05.3L19.3,90a109.82,109.82,0,0,0,32.78,5.28c17.72,0,28-5,28.63-5.37L82,89.27h.13V69.72A24.14,24.14,0,0,0,58,45.61ZM71.65,74.89H66v5.62a3.8,3.8,0,0,1-7.59,0V74.89H52.83a3.8,3.8,0,0,1,0-7.59h5.62V61.69a3.8,3.8,0,1,1,7.59,0V67.3h5.61a3.8,3.8,0,0,1,0,7.59Z"/></svg>