<svg id="Layer_1" data-name="Layer 1" xmlns="http://www.w3.org/2000/svg" viewBox="0 0 100 100"><defs><style>.cls-1{fill:#555554;}</style></defs><title>icons</title><path class="cls-1" d="M68.47,17.24h4.45L65.27,9.17V14A3.2,3.2,0,0,0,68.47,17.24Z"/><path class="cls-1" d="M59.42,64.11c.3-1.23.78-3.18.91-3.57L75.23,30.8V20.72H68.47a6.68,6.68,0,0,1-6.67-6.67V6.56h-51a3.55,3.55,0,0,0-3.55,3.55V89.89a3.55,3.55,0,0,0,3.55,3.55H71.67a3.56,3.56,0,0,0,3.56-3.56v-25l-1.85,3.69a1.72,1.72,0,0,1-.41.52L61.19,79.45a1.76,1.76,0,0,1-1.15.44,1.73,1.73,0,0,1-1.72-1.84l.12-1.73ZM15.5,48.45a1.63,1.63,0,0,1,1.12-.55h.1a1.6,1.6,0,0,1,1.08.41l1.65,1.46L25,42A1.62,1.62,0,0,1,26,41.36a1.64,1.64,0,0,1,1.61,2.56l-6.58,9.23a1.63,1.63,0,0,1-1.15.68,1.68,1.68,0,0,1-1.27-.4l-3-2.67a1.64,1.64,0,0,1-.13-2.31ZM27.64,72.68l-6.58,9.23a1.65,1.65,0,0,1-2.42.27l-3-2.67a1.64,1.64,0,0,1,2.17-2.45l1.65,1.47L25,70.78A1.66,1.66,0,0,1,26,70.11a1.61,1.61,0,0,1,1.22.29A1.63,1.63,0,0,1,27.64,72.68Zm0-14.38-6.58,9.23a1.66,1.66,0,0,1-1.15.67,1.6,1.6,0,0,1-1.27-.4l-3-2.66A1.59,1.59,0,0,1,15.09,64a1.64,1.64,0,0,1,1.53-1.73h.1a1.6,1.6,0,0,1,1.08.41l1.65,1.46L25,56.4a1.64,1.64,0,0,1,2.67,1.9Zm3.14-32.71a2.68,2.68,0,0,1,2.67-2.67H37.4V19a2.68,2.68,0,1,1,5.35,0v4h4a2.67,2.67,0,0,1,0,5.34h-4v4a2.68,2.68,0,0,1-5.35,0v-4H33.45A2.67,2.67,0,0,1,30.78,25.59ZM55.14,77.2H34.25a1.83,1.83,0,0,1-1.84-1.83,1.84,1.84,0,0,1,1.84-1.84H55.14a1.84,1.84,0,0,1,0,3.68Zm0-15H34.25a1.83,1.83,0,0,1-1.84-1.83,1.84,1.84,0,0,1,1.84-1.84H55.14A1.84,1.84,0,0,1,57,60.4,1.84,1.84,0,0,1,55.14,62.24ZM34.25,48.06A1.72,1.72,0,0,1,33,47.55a1.69,1.69,0,0,1-.51-1.22,1.75,1.75,0,0,1,1.74-1.74H60a1.74,1.74,0,0,1,0,3.47Z"/><polygon class="cls-1" points="62.82 65.2 62.11 74.01 68.75 68.17 62.82 65.2"/><path class="cls-1" d="M90.31,17.7a3.93,3.93,0,0,0-5.54,1.78L63.63,61.72l7.42,3.72L92.2,23.21A3.93,3.93,0,0,0,90.31,17.7Z"/></svg>