<svg id="Layer_1" data-name="Layer 1" xmlns="http://www.w3.org/2000/svg" viewBox="0 0 100 100"><defs><style>.cls-1{fill:#555554;}</style></defs><title>icons</title><path class="cls-1" d="M68.84,86.51a9,9,0,0,0,2.93.46,10.34,10.34,0,0,0,3.54-.62,10.71,10.71,0,0,0,6.1-6.12l.11-.25,2.48.86a.8.8,0,0,0,1-1l-3.08-8.34a.83.83,0,0,0-.49-.48.76.76,0,0,0-.67.08l-7.62,4.6a.84.84,0,0,0-.38.78.79.79,0,0,0,.53.66l2.46.86-.11.28c-1.09,2.92-2.74,6-6.69,6.72a.82.82,0,0,0-.61.53.52.52,0,0,0,0,.21h0A.78.78,0,0,0,68.84,86.51Z"/><path class="cls-1" d="M22.6,39.47A14.8,14.8,0,1,1,37.39,54.26,14.8,14.8,0,0,1,22.6,39.47Zm40-5.71A14.8,14.8,0,1,0,47.82,19,14.8,14.8,0,0,0,62.61,33.76Zm6.28,3.05H56.33c-.3,0-.59,0-.88,0,1.13,2.38.74,2.48.74,5.29,0,5.18-2.74,8.78-6.21,12.11,8.13,2.43,14.29,6.35,15.7,14.86a67,67,0,0,0,21-4.14l1-.51h.11V53.71C87.83,43.27,79.33,36.81,68.89,36.81Z"/><path class="cls-1" d="M43.67,56.8H31.11a19,19,0,0,0-18.94,19V91.1l0,.24,1.06.33A86.11,86.11,0,0,0,39,95.83c13.92,0,22-4,22.49-4.23l1-.5h.1V75.75A19,19,0,0,0,43.67,56.8Zm10.73,23H50v4.41a3,3,0,0,1-6,0V79.81H39.62a3,3,0,1,1,0-6H44V69.43a3,3,0,1,1,6,0v4.41H54.4a3,3,0,0,1,0,6Z"/></svg>