<svg id="Layer_1" data-name="Layer 1" xmlns="http://www.w3.org/2000/svg" viewBox="0 0 100 100"><defs><style>.cls-1{fill:#555554;}</style></defs><title>icons</title><path class="cls-1" d="M25.44,79.64V14.48h-12a1.92,1.92,0,0,0-2,2V92.63a1.93,1.93,0,0,0,2,2H64.41a1.92,1.92,0,0,0,2-2v-6.9H31.53A6,6,0,0,1,25.44,79.64Z"/><path class="cls-1" d="M71.92,20V5.34H31.53a1.92,1.92,0,0,0-2,2V79.64a1.92,1.92,0,0,0,2,2h55a2,2,0,0,0,2-2V22H74A1.93,1.93,0,0,1,71.92,20ZM37.8,26.05c5.12.22,9.08.07,12,0,3.71-.14,5.95-.22,6.84.63a1.88,1.88,0,0,1,.49,1.44,1.92,1.92,0,0,1-2,2H37.82a2,2,0,0,1-2-2A1.91,1.91,0,0,1,37.8,26.05Zm42.44,43H37.82a2,2,0,0,1,0-4.06H80.24a2,2,0,0,1,0,4.06Zm0-9.74H37.82a2,2,0,1,1,0-4.06H80.24a2,2,0,1,1,0,4.06Zm0-9.75H37.82a2,2,0,1,1,0-4.06H80.24a2,2,0,0,1,0,4.06Zm2-11.77a1.92,1.92,0,0,1-2,2H37.82a2,2,0,0,1,0-4.06H80.24A1.92,1.92,0,0,1,82.27,37.82Z"/><path class="cls-1" d="M85.68,17.92l-.15-.16c-.24-.27-.63-.66-1.25-1.28L76,8.19v9.74h9.7Z"/></svg>