<svg id="Layer_1" data-name="Layer 1" xmlns="http://www.w3.org/2000/svg" viewBox="0 0 100 100"><defs><style>.cls-1{fill:#555554;}</style></defs><title>icons</title><path class="cls-1" d="M70,31.66l0-.46H59.44V72.45h8.74V59.4a2.09,2.09,0,0,1,2.08-2.09h5.09L70.13,38.73a2.15,2.15,0,0,1-.07-.83A29.9,29.9,0,0,0,70,31.66Z"/><path class="cls-1" d="M40.54,87.47v-71a3.91,3.91,0,0,1,3.9-3.9l16-.11-1.24-.89C54,7.77,47,5.6,38.48,5.09c-.66,0-16.71.36-25.77,9.89C8.14,19.8,6,26.26,6.41,34.16v.14A18.65,18.65,0,0,0,10.68,45c5.51,6.79,7.52,17.16,7.52,22.47,0,4.54-.24,20.33-.34,26.91v.51H49.73l.3-3.54H44.44A3.91,3.91,0,0,1,40.54,87.47Z"/><path class="cls-1" d="M84.88,19.69V16.24l-40.36.28V87.4H84.89v-11H59.37a3.91,3.91,0,0,1-3.9-3.9V31.12a3.91,3.91,0,0,1,3.9-3.9H84.88V24.08l4.44.84v9.34a2.16,2.16,0,1,0,4.31,0V21.34Z"/></svg>