<svg id="Layer_1" data-name="Layer 1" xmlns="http://www.w3.org/2000/svg" viewBox="0 0 100 100"><defs><style>.cls-1{fill:#555554;}</style></defs><title>icons</title><path class="cls-1" d="M73.16,70.32a2.89,2.89,0,1,0,2,.85A2.9,2.9,0,0,0,73.16,70.32Z"/><path class="cls-1" d="M35.2,70.32a2.9,2.9,0,1,0,2.89,2.9A2.9,2.9,0,0,0,35.2,70.32Z"/><path class="cls-1" d="M23.5,70.32a2.9,2.9,0,1,0,2.89,2.9A2.9,2.9,0,0,0,23.5,70.32Z"/><path class="cls-1" d="M57.91,70.32a2.89,2.89,0,1,0,2.05.85A2.9,2.9,0,0,0,57.91,70.32Z"/><path class="cls-1" d="M87.56,15.39H12.44a5.33,5.33,0,0,0-5.33,5.33V79.28a5.33,5.33,0,0,0,5.33,5.33H87.56a5.33,5.33,0,0,0,5.33-5.32V20.72A5.33,5.33,0,0,0,87.56,15.39ZM35.2,79.75a6.55,6.55,0,0,1-5.7-3.35l-.15-.26-.15.26a6.54,6.54,0,1,1,0-6.37l.15.27L29.5,70a6.53,6.53,0,1,1,5.7,9.72Zm22.71,0a6.54,6.54,0,1,1,6.53-6.53A6.54,6.54,0,0,1,57.91,79.75Zm15.25,0a6.54,6.54,0,1,1,6.53-6.53A6.54,6.54,0,0,1,73.16,79.75ZM81.22,59A4.28,4.28,0,0,1,77,63.24H21.69A4.27,4.27,0,0,1,17.42,59V28.07a4.27,4.27,0,0,1,4.27-4.27H77a4.27,4.27,0,0,1,4.27,4.27Z"/><path class="cls-1" d="M77,27.44H21.69a.63.63,0,0,0-.63.63V40.9h9.48l5.26-5.26a2.44,2.44,0,0,1,3.44,0L50.08,46.47l4-3.95a2.44,2.44,0,0,1,3.44,0l2.26,2.26L66,38.56a2.44,2.44,0,0,1,3.44,0l2.34,2.34h5.85V28.07A.63.63,0,0,0,77,27.44Z"/><path class="cls-1" d="M69.51,43.83,67.67,42l-6.22,6.22a2.44,2.44,0,0,1-3.44,0L55.75,46l-4,3.95a2.44,2.44,0,0,1-3.44,0L37.52,39.07l-4.76,4.76a2.41,2.41,0,0,1-1.72.71h-10V59a.63.63,0,0,0,.63.63H77a.63.63,0,0,0,.63-.63V44.54H71.23A2.41,2.41,0,0,1,69.51,43.83Z"/></svg>