<svg id="Layer_1" data-name="Layer 1" xmlns="http://www.w3.org/2000/svg" viewBox="0 0 100 100"><defs><style>.cls-1{fill:#555554;}</style></defs><title>icons</title><path class="cls-1" d="M78.07,15.91H75l.08.49a16.72,16.72,0,0,1,.18,2.28v2.7a1.91,1.91,0,0,1-1.91,1.91H26.61a1.91,1.91,0,0,1-1.91-1.91v-2.7a15.29,15.29,0,0,1,.19-2.28l.07-.49h-3a2.77,2.77,0,0,0-2.76,2.77v72a2.77,2.77,0,0,0,2.76,2.76H78.07a2.77,2.77,0,0,0,2.76-2.76v-72A2.77,2.77,0,0,0,78.07,15.91ZM43.39,38.32h3.94V34.38a2.67,2.67,0,1,1,5.34,0v3.94h3.94a2.67,2.67,0,0,1,0,5.34H52.67v4a2.67,2.67,0,0,1-5.34,0v-4H43.39a2.67,2.67,0,0,1,0-5.34ZM32.32,55.93H67.68a2.47,2.47,0,0,1,2.7,2.14,2.47,2.47,0,0,1-2.7,2.14H32.32a2.47,2.47,0,0,1-2.7-2.14A2.47,2.47,0,0,1,32.32,55.93Zm0,11.81H66.86a2.2,2.2,0,1,1,0,4.28H32.32a2.2,2.2,0,1,1,0-4.28ZM43.54,84H31.86a2.25,2.25,0,0,1,0-4.49H43.54a2.25,2.25,0,0,1,0,4.49ZM70.2,84H50.54a2.25,2.25,0,1,1,0-4.49H70.2a2.25,2.25,0,0,1,0,4.49Z"/><path class="cls-1" d="M28.52,19.47h43v-.79A12.13,12.13,0,0,0,59.35,6.56H40.65A12.13,12.13,0,0,0,28.52,18.68ZM50,10.6A2.42,2.42,0,1,1,47.59,13,2.41,2.41,0,0,1,50,10.6Z"/></svg>